# xmcd CD database file generated by OrangeCD 5.2
#
# Track frame offsets:
#	150
#	7107
#	20265
#	54195
#	82207
#	100900
#	120300
#	148475
#	152682
#	170525
#	191962
#	216452
#	242387
#	276195
#	310882
#
# Disc length: 4195 seconds
#
# Revision: 5
# Processed by: cddbd v1.5.1PL0 Copyright (c) Steve Scherf et al.
# Submitted via: OrangeCD 5.2
#
DISCID=d410610f
DTITLE=Quincy Jones - Q's Jook Joint
DYEAR=1995
DGENRE=Jazz/R&B
TTITLE0=Jook Joint Intro
TTITLE1=Stevie Wonder, Bono and Ray Charles - Let The Good Times Roll
TTITLE2=Tone Loc, Queen Latifan and Nancy Wilson  - Coll Joe, Mean Joe (Killer Jo
TTITLE2=e)
TTITLE3=Tamia - You Put A Move On My Heart
TTITLE4=Brandy and Heavy D - Rock With You
TTITLE5=Brian McKnight, Rachelle Ferrell, Take 6 and James Moody  - Moody's Modd 
TTITLE5=For Love
TTITLE6=The Cast Of Stomp - Stomp
TTITLE7=Ray Charles and Funkmaster Flex - Jook Joint Reprise (Let The Good Times 
TTITLE7=Roll)
TTITLE8=Phil Collins - Do Nothin' Till You Hear From Me
TTITLE9=Gloria Estefan and Warren Wiebe - Is It Love That We're Missin'
TTITLE10=R Kelly, Ron Isley, Aaron Hall and Charlie Wilson and Naomi Campbell - Hea
TTITLE10=ven's Girl
TTITLE11=Charlie Wilson, Ray Charles, Brandy, Chaka Khan and Ashford and Simpson 
TTITLE11=/ Stuff Like That
TTITLE12=SWV, Babyface, Portrait and Barry White - Slow Jams
TTITLE13=Toots Thielemans and Barry White and Mervyn Warren - At The End Of The Day
TTITLE13=(Grace)
TTITLE14=Barry White, Tamia and Toots Thietemans - Jook Joint Outro
EXTD=
EXTT0=
EXTT1=
EXTT2=
EXTT3=
EXTT4=
EXTT5=
EXTT6=
EXTT7=
EXTT8=
EXTT9=
EXTT10=
EXTT11=
EXTT12=
EXTT13=
EXTT14=
PLAYORDER=
